<svg xmlns="http://www.w3.org/2000/svg" viewBox="0 0 800 800" width="800" height="800">
    <!-- Definici贸n del gradiente -->
    <defs>
        <linearGradient id="gradient" x1="403.21" x2="3.93" y1="359.38" y2="795.09">
            <stop stop-opacity=".42" offset="0"/>
            <stop stop-opacity="0" offset="1"/>
        </linearGradient>

        <!-- Patr贸n de c贸digo binario mejorado -->
        <pattern id="binaryPattern" patternUnits="userSpaceOnUse" width="80" height="80">
            <text x="10" y="25" font-family="'Courier New', monospace" font-size="20" fill="white" opacity="0.4">10101010</text>
            <text x="10" y="50" font-family="'Courier New', monospace" font-size="20" fill="white" opacity="0.4">01010101</text>
            <text x="10" y="75" font-family="'Courier New', monospace" font-size="20" fill="white" opacity="0.4">1100JG00</text>
            <text x="10" y="100" font-family="'Courier New', monospace" font-size="20" fill="white" opacity="0.4">00110011</text>
        </pattern>
    </defs>

    <!-- Fondo azul con c贸digo binario -->
    <circle cx="400" cy="400" r="400" fill="#1c8adb"/>
    <circle cx="400" cy="400" r="400" fill="url(#binaryPattern)"/>

    <!-- Estructura principal del castillo -->
    <path d="M390 144.5c-28.7 0-54.5 11.8-72.9 30.9L5.2 487.3c26.5 172.6 104.9 309.2 374.8 312.5l175.6-175.6c3.3-2.7 5.7-6.5 6.6-10.9 0.3-1.2 0.4-2.5 0.4-3.9V328.9c0-1.3-0.1-2.6-0.4-3.9-1.8-8.7-9.5-15.3-18.8-15.3h-32.1v-63.9c0-56.1-45.2-101.3-101.3-101.3z" fill="url(#gradient)"/>

    <!-- Detalles blancos del castillo -->
    <path d="M390 144.5c-56.1 0-101.3 45.2-101.3 101.3v63.9h-32.1c-10.6 0-19.2 8.5-19.2 19.2v280.6c0 10.6 8.5 19.2 19.2 19.2h286.7c10.6 0 19.1-8.5 19.1-19.2V328.9c0-10.6-8.5-19.2-19.1-19.2h-32.1v-63.9c0-56.1-45.2-101.3-101.3-101.3h-19.8zm1.2 14.4h17.3c49.1 0 88.7 39.5 88.7 88.7v62.2h-18.3v-58.8c0-39.9-32.1-72-72-72h-14.1c-39.9 0-72 32.1-72 72v58.8h-18.3v-62.2c0-49.1 39.5-88.7 88.7-88.7zm2.5 30.2h12.3c34.9 0 63 28.1 63 63v57.6h-138.4v-57.6c0-34.9 28.1-63 63-63zm-124.1 135.1h260.6c9.6 0 17.4 7.8 17.4 17.4v255c0 9.6-7.8 17.4-17.4 17.4H269.7c-9.6 0-17.4-7.8-17.4-17.4v-255c0-9.6 7.8-17.4 17.4-17.4z" fill="#fff"/>

    <!-- Letras "SG" en lugar de ventanas -->
    <text x="400" y="510" font-family="'Arial Black', sans-serif" font-size="120" fill="white" text-anchor="middle" font-weight="bold">SG</text>

    <text x="400" y="600" font-family="'Arial Black', sans-serif" font-size="30" fill="white" text-anchor="middle" font-weight="bold">JAVA</text>
</svg>